HIERARCHY
ROOT Hips
{
	OFFSET -0.001795 -0.223333 0.028219
	CHANNELS 6 Xposition Yposition Zposition Zrotation Yrotation Xrotation 
	JOINT LeftUpLeg
	{
		OFFSET 0.069520 -0.091406 -0.006815
		CHANNELS 3 Zrotation Yrotation Xrotation
		JOINT LeftLeg
		{
			OFFSET 0.034277 -0.375199 -0.004496
			CHANNELS 3 Zrotation Yrotation Xrotation
			JOINT LeftFoot
			{
				OFFSET -0.013596 -0.397961 -0.043693
				CHANNELS 3 Zrotation Yrotation Xrotation
				JOINT LeftToe
				{
					OFFSET 0.026358 -0.055791 0.119288
					CHANNELS 3 Zrotation Yrotation Xrotation
					End Site
					{
						OFFSET 0.000000 0.000000 0.000000
					}
				}
			}
		}
	}
	JOINT RightUpLeg
	{
		OFFSET -0.067670 -0.090522 -0.004320
		CHANNELS 3 Zrotation Yrotation Xrotation
		JOINT RightLeg
		{
			OFFSET -0.038290 -0.382569 -0.008850
			CHANNELS 3 Zrotation Yrotation Xrotation
			JOINT RightFoot
			{
				OFFSET 0.015774 -0.398415 -0.042312
				CHANNELS 3 Zrotation Yrotation Xrotation
				JOINT RightToe
				{
					OFFSET -0.025372 -0.048144 0.123348
					CHANNELS 3 Zrotation Yrotation Xrotation
					End Site
					{
						OFFSET 0.000000 0.000000 0.000000
					}
				}
			}
		}
	}
	JOINT Spine
	{
		OFFSET -0.002533 0.108963 -0.026696
		CHANNELS 3 Zrotation Yrotation Xrotation
		JOINT Spine1
		{
			OFFSET 0.005487 0.135180 0.001092
			CHANNELS 3 Zrotation Yrotation Xrotation
			JOINT Spine2
			{
				OFFSET 0.001457 0.052922 0.025425
				CHANNELS 3 Zrotation Yrotation Xrotation
				JOINT Neck
				{
					OFFSET -0.002778 0.213870 -0.042857
					CHANNELS 3 Zrotation Yrotation Xrotation
					JOINT Head
					{
						OFFSET 0.005152 0.064970 0.051349
						CHANNELS 3 Zrotation Yrotation Xrotation
						End Site
						{
							OFFSET 0.000000 0.000000 0.000000
						}
					}
				}
				JOINT LeftShoulder
				{
					OFFSET 0.078845 0.121749 -0.034090
					CHANNELS 3 Zrotation Yrotation Xrotation
					JOINT LeftArm
					{
						OFFSET 0.090977 0.030469 -0.008868
						CHANNELS 3 Zrotation Yrotation Xrotation
						JOINT LeftForeArm
						{
							OFFSET 0.259612 -0.012772 -0.027456
							CHANNELS 3 Zrotation Yrotation Xrotation
							JOINT LeftHand
							{
								OFFSET 0.249234 0.008986 -0.001171
								CHANNELS 3 Zrotation Yrotation Xrotation
								End Site
								{
									OFFSET 0.000000 0.000000 0.000000
								}
							}
						}
					}
				}
				JOINT RightShoulder
				{
					OFFSET -0.081759 0.118833 -0.038615
					CHANNELS 3 Zrotation Yrotation Xrotation
					JOINT RightArm
					{
						OFFSET -0.096012 0.032551 -0.009143
						CHANNELS 3 Zrotation Yrotation Xrotation
						JOINT RightForeArm
						{
							OFFSET -0.253742 -0.013329 -0.021401
							CHANNELS 3 Zrotation Yrotation Xrotation
							JOINT RightHand
							{
								OFFSET -0.255298 0.007772 -0.005559
								CHANNELS 3 Zrotation Yrotation Xrotation
								End Site
								{
									OFFSET 0.000000 0.000000 0.000000
								}
							}
						}
					}
				}
			}
		}
	}
}
MOTION
Frames: 8
Frame Time: 0.050000
0.000000 0.917404 0.000000 -0.519438 -9.446275 6.626577 0.446174 -1.060160 -13.321163 -1.592851 0.616726 28.620906 3.856956 7.044713 -6.210513 0.000000 0.000000 0.000000 1.191938 0.491730 -5.234060 3.990641 0.204222 19.726812 -4.039084 -4.012261 -11.154688 0.000000 0.000000 0.000000 5.079384 -0.823473 8.601603 -3.784304 1.334357 -24.140076 -1.054035 9.188576 28.597310 12.411639 -3.939222 -32.116343 0.000000 0.000000 0.000000 -14.624776 -1.065787 -0.749093 -52.524154 0.455592 -8.759175 -69.057708 -64.284223 51.561714 0.000000 0.000000 0.000000 23.255799 -8.739887 -5.843252 55.289243 -5.162648 -10.171129 52.268505 56.800271 34.436661 0.000000 0.000000 0.000000 
-0.007570 0.909658 0.021012 -1.982470 -10.996222 8.075132 2.894238 -0.938388 -18.631143 -2.913116 2.070908 38.563486 4.728745 9.397207 -4.180481 0.000000 0.000000 0.000000 3.148527 0.522483 -5.726081 2.478098 0.773677 21.118970 -4.703533 -4.251142 -13.306250 0.000000 0.000000 0.000000 6.945807 -0.977596 8.044176 -4.250488 1.396452 -23.418548 -0.285528 10.578947 28.790425 10.237006 -2.445252 -34.019603 0.000000 0.000000 0.000000 -16.406087 1.001490 -2.058463 -51.063971 0.884311 -8.682865 -75.238740 -65.668245 57.790969 0.000000 0.000000 0.000000 24.026031 -7.847466 -5.272032 54.178713 -2.123980 -8.799133 59.947475 59.002273 41.539306 0.000000 0.000000 0.000000 
-0.014702 0.898472 0.045723 -1.813789 -12.116767 8.461915 2.463004 -1.107459 -27.121837 -1.465606 2.749915 53.394112 3.511041 7.184800 -0.721294 0.000000 0.000000 0.000000 2.449553 0.535757 -5.893155 2.529467 0.963141 22.992430 -5.275000 -2.341346 -17.681288 0.000000 0.000000 0.000000 6.905969 -1.136757 10.059661 -4.068469 1.351013 -24.870175 1.041461 11.901675 30.534582 8.851043 -1.416089 -36.107926 0.000000 0.000000 0.000000 -17.164956 2.273719 -2.965499 -49.468240 1.439634 -8.667500 -85.251861 -66.524938 67.150621 0.000000 0.000000 0.000000 21.993920 -6.674972 -4.098655 54.693283 4.431171 -6.147403 64.515693 61.437199 47.501070 0.000000 0.000000 0.000000 
-0.022417 0.889435 0.077500 -1.840769 -14.355620 9.108457 2.860376 -0.669385 -35.596663 -1.803452 4.579517 63.274227 2.875075 6.376571 1.624557 0.000000 0.000000 0.000000 2.556530 0.241528 -3.711407 0.427653 1.651405 22.679953 -4.658891 0.630618 -17.046965 0.000000 0.000000 0.000000 6.158372 -1.115434 11.197427 -3.921094 1.344209 -27.401079 2.550566 14.705918 32.935719 8.169764 -0.758835 -37.309773 0.000000 0.000000 0.000000 -17.130401 3.246709 -3.784695 -48.669675 3.382292 -9.352275 -97.850566 -64.598303 76.511119 0.000000 0.000000 0.000000 21.005207 -7.032545 -3.775478 53.858894 9.138537 -4.319830 84.815048 63.969754 68.165126 0.000000 0.000000 0.000000 
-0.032183 0.884212 0.117619 -1.236032 -16.301808 9.536588 3.010506 -0.003800 -42.239158 -3.246641 6.495330 66.288304 3.648498 7.988740 2.177223 0.000000 0.000000 0.000000 1.332854 -0.117853 0.047813 -0.996701 1.699588 19.181752 -3.289308 4.831171 -15.331022 0.000000 0.000000 0.000000 4.660037 -0.911103 11.270421 -4.187688 1.360659 -26.264908 3.997265 17.234935 32.217721 7.239202 -0.072157 -37.298819 0.000000 0.000000 0.000000 -16.174763 3.073373 -3.902642 -48.348735 5.325989 -9.843904 -106.943857 -63.241402 83.358539 0.000000 0.000000 0.000000 20.348613 -6.864698 -3.290997 53.948655 12.933710 -2.560471 102.702657 65.974451 89.187393 0.000000 0.000000 0.000000 
-0.044550 0.885260 0.167239 -0.514648 -18.327525 10.225146 2.793283 0.622940 -46.460881 -4.704928 7.540154 63.289275 4.380115 9.528600 3.468136 0.000000 0.000000 0.000000 -0.153355 -0.345226 4.804760 -2.584391 1.638224 15.398441 0.647093 10.962255 -9.094908 0.000000 0.000000 0.000000 2.233487 -0.575540 11.538479 -4.181175 1.384288 -27.631977 5.528691 19.036034 33.236541 6.375916 0.440382 -37.349827 0.000000 0.000000 0.000000 -16.864502 3.099958 -4.239295 -46.078090 7.395969 -10.003171 -116.248546 -61.513238 91.039528 0.000000 0.000000 0.000000 18.981671 -5.779824 -2.416504 55.112445 15.359408 -1.385137 122.803918 63.316932 110.678427 0.000000 0.000000 0.000000 
-0.059316 0.889640 0.227494 0.108510 -19.765795 11.201110 2.469231 0.848986 -47.098525 -6.814736 8.160620 56.168567 6.143066 12.427862 0.963501 0.000000 0.000000 0.000000 -0.803926 -0.358971 7.148894 -4.125162 1.855869 14.509679 2.326164 11.305766 -5.242539 0.000000 0.000000 0.000000 -0.913954 -0.099734 10.419876 -3.926855 1.255605 -26.133318 4.659122 20.498662 31.426562 6.173938 0.550075 -35.920255 0.000000 0.000000 0.000000 -15.271341 4.961894 -5.097844 -45.574262 7.215190 -9.690660 -122.164735 -58.476290 93.833754 0.000000 0.000000 0.000000 18.990696 -6.010734 -2.411363 56.351765 16.385312 -0.697530 132.207086 58.031435 118.417850 0.000000 0.000000 0.000000 
-0.076023 0.892117 0.297603 0.116122 -19.032612 10.956076 0.392972 -0.452023 -43.810259 -6.020204 6.567996 50.755605 4.893659 9.546264 -2.933146 0.000000 0.000000 0.000000 -1.307495 -0.354138 8.757831 -2.518888 2.087109 18.929788 4.412015 11.188904 -0.262650 0.000000 0.000000 0.000000 -2.868023 0.182322 10.150950 -3.665287 1.235659 -26.394108 4.850398 20.009083 33.122323 7.330424 0.111696 -37.175521 0.000000 0.000000 0.000000 -14.953517 3.702534 -4.379625 -45.778313 4.828272 -9.052688 -125.428309 -57.199691 96.581131 0.000000 0.000000 0.000000 17.695345 -6.994572 -2.872535 58.588237 15.830757 -0.843546 134.033503 54.722153 118.290288 0.000000 0.000000 0.000000 
